PathFileType	4	(X/Y/Z)	c:/Users/goper/Files/vsCode/490R/osim_files/A06/A06_Fast_06.trc
DataRate	CameraRate	NumFrames	NumMarkers	Units                	OrigDataRate	OrigDataStartFrame	OrigNumFrames
120.00	120.00	9	36	mm	120.0	406	1081
                Frame#	Time	LPSIS			LASIS			LTH1			LTH2			LTH3			LTH4			LLFE			LMFE			LSH1			LSH2			LSH3			LSH4			LLMAL			LMMAL			LCAL			LMTP5			LTOE			LMTP1			RPSIS			RASIS			RTH1			RTH2			RTH3			RTH4			RLFE			RMFE			RSH1			RSH2			RSH3			RSH4			RLMAL			RMMAL			RCAL			RMTP1			RTOE			RMTP5		
		X1	Y1	Z1	X2	Y2	Z2	X3	Y3	Z3	X4	Y4	Z4	X5	Y5	Z5	X6	Y6	Z6	X7	Y7	Z7	X8	Y8	Z8	X9	Y9	Z9	X10	Y10	Z10	X11	Y11	Z11	X12	Y12	Z12	X13	Y13	Z13	X14	Y14	Z14	X15	Y15	Z15	X16	Y16	Z16	X17	Y17	Z17	X18	Y18	Z18	X19	Y19	Z19	X20	Y20	Z20	X21	Y21	Z21	X22	Y22	Z22	X23	Y23	Z23	X24	Y24	Z24	X25	Y25	Z25	X26	Y26	Z26	X27	Y27	Z27	X28	Y28	Z28	X29	Y29	Z29	X30	Y30	Z30	X31	Y31	Z31	X32	Y32	Z32	X33	Y33	Z33	X34	Y34	Z34	X35	Y35	Z35	X36	Y36	Z36

406	3.37500	-458.85004	1002.29749	310.23956	-641.66901	950.30524	396.40796	-677.46509	599.72290	433.11868	-701.44360	563.78320	427.12811	-736.58801	625.46887	428.38239	-749.84686	584.00330	424.91907	-752.77740	506.56827	413.23947	-758.72205	508.67972	301.73120	-673.41431	433.11450	422.89072	-663.77649	387.81226	425.85626	-731.80353	414.15012	413.53741	-716.02472	374.84048	416.15933	-575.12598	153.17172	370.68982	-599.80359	158.77112	289.00632	-511.91068	165.30717	316.66580	-663.86371	64.16875	389.05386	-710.19574	75.14055	337.56448	-687.45123	74.57880	297.71634	-473.00241	1014.45905	179.53749	-653.32684	967.88379	140.20789	-503.63123	595.28497	103.31406	-506.56723	552.50928	104.77932	-566.05212	592.48523	111.09265	-559.80780	548.22583	109.00136	-523.84949	437.65338	133.81474	-529.37262	440.92395	222.20895	-551.27716	276.27426	162.95763	-541.91046	229.56461	160.29817	-492.36362	284.47534	152.97838	-490.11551	236.67838	156.52226	-478.05542	101.39616	153.99362	-493.02094	107.60715	235.80930	-423.03336	83.62257	204.36140	-625.03021	55.94263	225.25465	-639.29541	67.17214	184.33829	-608.71893	50.84845	137.60237
407	3.38333	-469.36444	1002.17517	310.12863	-652.00568	949.72095	396.12579	-690.94684	600.90381	433.28271	-715.24878	565.18665	427.14944	-749.73407	627.30865	427.77921	-763.25568	585.82648	424.41946	-766.96100	508.55557	412.69376	-772.33350	510.26251	301.48386	-690.07526	431.04553	421.92609	-682.95825	385.32214	425.01459	-749.61456	415.44855	413.46072	-736.02271	375.23660	415.91779	-608.82422	145.32951	370.09409	-633.31085	152.64380	288.77936	-545.37976	153.81401	315.55460	-702.78583	62.13203	389.43369	-748.80457	75.89534	338.41925	-726.61322	73.87224	298.37595	-484.76700	1013.91431	178.27420	-663.72919	967.20880	139.87343	-510.47598	595.73505	103.09753	-513.01501	552.85760	104.54801	-572.98810	592.10870	110.86517	-566.21265	547.96039	108.93018	-528.72693	437.85324	133.71979	-534.06323	441.23141	222.15991	-553.40717	275.94232	163.19525	-544.20868	229.57977	160.21005	-495.57483	284.78580	152.91742	-492.55560	237.29680	156.32492	-478.39175	101.65133	153.85973	-493.98999	107.44904	235.28635	-423.27731	83.86730	204.27890	-624.97119	55.83597	225.29143	-639.69666	66.74548	184.09261	-608.90149	50.72483	137.63733
408	3.39167	-479.78894	1001.97339	310.06583	-662.55719	948.89374	395.93103	-703.98315	601.72284	433.57404	-728.60956	566.27289	427.27512	-762.33453	628.69318	427.11496	-776.22650	587.24292	423.90790	-780.55933	510.05487	412.11948	-785.82684	511.31421	301.44772	-706.67401	428.21289	420.94183	-702.01123	382.39532	424.21271	-766.86920	416.29584	413.29962	-755.66113	375.25864	415.87128	-642.89307	138.27620	369.76410	-668.00000	146.85580	288.52640	-580.04462	142.27161	314.38489	-741.65411	60.91172	390.14331	-787.27344	77.48682	339.69910	-766.41290	74.56887	299.13028	-495.35889	1013.67377	178.24690	-673.97565	966.33136	139.71646	-517.51410	596.04309	102.90717	-519.80969	552.90186	104.18913	-579.96906	591.60461	110.70348	-572.59454	547.47852	108.82214	-533.32257	438.02118	133.77989	-538.90808	441.30728	222.16422	-557.04401	275.98755	162.80571	-546.55756	229.52820	160.16954	-498.56387	285.43045	152.79474	-495.04990	237.95421	156.22034	-478.70563	101.86388	153.74937	-494.49597	107.37347	235.24753	-423.42731	84.21588	204.13075	-625.11975	55.65101	225.29501	-639.98181	66.32648	184.23207	-609.28522	50.52197	137.65375
409	3.40000	-490.51044	1001.49585	310.14349	-673.14691	947.89917	395.74713	-717.32397	601.25787	434.82837	-741.50067	566.94257	427.29791	-774.57050	629.54114	426.44501	-788.67590	588.12146	423.26511	-793.43335	511.05115	411.54672	-798.35065	511.77484	301.23489	-721.94281	425.46890	420.06497	-720.82758	379.06021	423.44803	-783.69977	416.74814	413.23947	-774.88379	375.04791	415.89221	-677.13660	131.49490	369.44516	-702.70428	141.72336	288.36618	-614.91968	131.12029	312.93903	-780.28015	60.70321	391.23636	-825.40131	79.99681	341.36151	-805.32776	75.58167	300.47714	-505.79874	1013.41730	178.28833	-684.51025	965.42523	139.58037	-524.61224	596.30939	102.80278	-526.11401	553.29633	104.06609	-586.93195	591.03461	110.65688	-579.12494	547.11279	108.71050	-537.99597	438.13956	134.00319	-543.85413	441.33362	222.08580	-559.91333	275.71329	162.86282	-548.92682	229.53973	160.09329	-501.60852	285.97638	152.75589	-497.50797	238.61591	156.15451	-479.06851	102.07483	153.65097	-494.79019	107.56023	235.14153	-423.62347	84.49363	204.03801	-625.46527	55.42126	225.38229	-640.12854	66.15000	184.25591	-609.58344	50.34573	137.69856
410	3.40833	-501.18509	1000.92004	310.30493	-683.80695	946.78351	395.60843	-729.43610	601.24451	434.92963	-753.62250	567.13110	427.27798	-786.48096	629.89197	425.61823	-800.74884	588.54504	422.48444	-805.45093	511.41714	410.97726	-809.61871	511.56854	300.84366	-738.32318	421.55225	419.25699	-739.55640	375.32745	422.64340	-799.88074	416.82932	413.21918	-793.82001	374.57355	415.82751	-711.62408	125.39854	369.21808	-737.69708	137.23195	288.37381	-649.96393	120.47354	311.69141	-818.70837	61.46163	392.54068	-863.91351	84.16946	342.18103	-843.39203	77.22517	302.48236	-516.36194	1012.94775	178.47148	-694.92700	964.42249	139.36649	-531.73633	596.24689	103.02125	-532.54053	553.64081	104.06462	-593.93347	590.54010	110.64589	-585.58929	546.69952	108.61070	-543.64459	437.78162	133.23364	-548.84241	441.35858	222.03178	-563.38446	275.70444	162.57211	-551.30914	229.45570	160.09015	-504.67322	286.47241	152.65697	-499.98563	239.24896	156.16840	-479.37036	102.24953	153.54283	-495.04074	107.75773	235.00836	-423.78784	84.78249	203.96971	-625.54883	55.22680	225.39594	-640.29114	65.90518	184.29277	-609.42816	50.35548	137.73659
411	3.41667	-512.08832	1000.16248	310.62912	-694.65814	945.46997	395.47925	-740.99506	600.70111	434.91113	-765.32953	566.84723	427.15240	-797.74603	629.73425	424.69473	-812.15399	588.34381	421.84549	-816.76404	511.14178	410.38126	-820.82642	510.98492	300.57651	-754.02631	417.37891	418.55331	-757.94678	371.43460	422.08740	-815.76453	416.63324	413.13922	-812.20044	373.95682	415.86389	-746.13092	120.20395	369.27094	-773.25897	134.05048	288.23138	-684.74432	112.18383	310.91534	-857.13489	62.87719	393.61069	-901.06940	88.60883	344.12067	-881.65308	80.47678	304.19522	-526.93860	1012.35638	178.68698	-705.69360	964.43982	138.83784	-538.85632	596.35712	102.94741	-539.07098	553.80090	104.05087	-600.79602	589.84680	110.65322	-591.18109	545.85846	108.24062	-548.65485	437.77213	133.18735	-553.79944	441.32535	221.98750	-566.40479	275.52505	162.61008	-553.69330	229.44270	160.03371	-507.78494	286.99249	152.57184	-502.31799	239.92267	156.18184	-479.66293	102.48505	153.42876	-495.36124	107.98444	234.88942	-423.98669	85.10791	203.85170	-625.98053	54.89254	225.27847	-640.46747	65.62605	184.34003	-609.59473	50.24399	137.76991
412	3.42500	-522.97534	999.32758	310.94803	-705.73749	944.16626	395.32697	-752.10205	599.58832	434.92084	-776.48248	565.95020	426.70108	-808.69507	628.91949	423.64011	-823.09308	587.52295	420.94669	-827.64374	510.27289	409.69470	-831.32086	509.71201	300.11221	-768.99847	413.36298	417.18048	-776.28662	367.48380	421.76028	-831.37213	416.16748	412.97647	-830.52631	373.44086	415.73877	-780.95776	115.37215	368.97635	-807.59918	131.45900	289.02722	-721.56848	103.05756	310.40652	-895.20300	65.98435	394.93475	-937.39587	94.26194	346.21088	-919.33984	85.11382	305.81018	-537.60822	1011.78906	179.05058	-716.18506	963.21936	138.62785	-546.02301	596.51892	102.89941	-545.70129	553.96283	104.05610	-608.61414	589.46478	110.14351	-597.97052	545.09796	108.40867	-553.64056	437.79373	133.20638	-558.84747	441.26682	221.96474	-569.30969	275.24384	162.58414	-556.07471	229.37277	160.06554	-510.89600	287.51294	152.52309	-504.72778	240.52888	156.16743	-479.94669	102.77428	153.32109	-496.28973	109.29615	234.55911	-424.16940	85.49586	203.70314	-626.32501	54.86853	225.32298	-640.62683	65.29581	184.44165	-609.78052	50.15564	137.76855
413	3.43333	-533.92041	998.34497	311.44067	-716.88672	942.73126	395.25394	-762.65625	598.18274	434.62753	-786.64813	564.76642	425.86569	-819.09711	627.54785	422.59546	-833.46570	587.71234	417.97961	-837.78296	508.72928	409.00513	-841.23138	507.92236	299.58408	-784.13812	408.97064	416.81824	-794.06506	363.59235	420.60416	-846.23822	415.66040	412.78183	-847.95221	374.34705	417.01453	-815.57025	111.92701	369.36868	-841.58441	129.38083	289.36639	-757.22394	96.08892	310.13693	-932.66919	70.37946	396.17609	-973.25946	101.34131	347.79367	-956.15240	90.61172	307.04440	-548.16986	1011.11200	179.45605	-726.66980	962.02429	138.59877	-553.14282	596.58398	102.88419	-552.27814	553.99261	104.08327	-615.52960	588.65009	110.30791	-604.77283	544.88672	108.77303	-558.77100	437.73264	133.19740	-563.84625	441.19629	222.00690	-572.35944	275.03525	162.60216	-558.49426	229.35933	160.00751	-514.06177	287.99585	152.49649	-507.28204	241.13757	156.12973	-480.22595	103.02769	153.22888	-496.56396	109.52359	234.51884	-424.35870	85.92195	203.52078	-626.42224	54.74044	225.32156	-640.93036	65.13783	184.33820	-610.14496	49.98609	137.79251
414	3.44167	-544.91345	997.16351	312.03351	-728.44397	941.16492	395.20523	-772.55341	595.91357	433.89148	-796.65930	562.63208	425.18042	-829.06299	625.51947	421.42764	-843.39874	585.51086	417.16168	-847.54095	506.68692	408.06805	-850.71570	505.43686	298.91928	-799.41937	404.43631	416.51105	-811.94531	359.84485	420.42810	-860.67957	415.01233	412.64355	-865.17529	373.07410	416.60303	-850.18652	109.47181	369.97662	-875.13550	128.83228	290.23239	-793.57703	89.50626	310.87720	-969.57434	75.96074	397.19653	-1008.35730	109.72404	349.20386	-991.79865	97.91911	308.28418	-558.83630	1010.20428	179.99446	-739.20514	960.39612	137.89191	-560.42133	596.56647	103.01196	-558.99133	553.92914	104.17856	-622.61304	587.81378	110.49271	-611.86188	544.70398	107.96318	-563.95258	437.67065	133.23460	-568.98334	441.00119	222.06361	-575.43549	274.79291	162.60060	-560.87427	229.26646	160.07478	-517.25305	288.50131	152.56085	-509.84705	241.73451	156.07404	-480.62708	103.33347	153.12160	-497.56314	109.69710	234.48912	-424.56451	86.37592	203.38641	-626.59766	54.58073	225.30464	-641.15948	64.87746	184.36029	-610.33228	49.91830	137.80743
